<?xml version="1.0" encoding="UTF-8"?>
<svg id="logosandtypes_com" data-name="logosandtypes com" xmlns="http://www.w3.org/2000/svg" viewBox="0 0 150 150">
  <defs>
    <style>
      .cls-1 {
        fill: #04acf3;
      }

      .cls-2 {
        fill: #274d72;
      }

      .cls-3 {
        fill: none;
      }

      .cls-4 {
        fill: #f7941f;
      }
    </style>
  </defs>
  <g id="Layer_2" data-name="Layer 2">
    <path id="Layer_3" data-name="Layer 3" class="cls-3" d="M0,0H150V150H0V0Z"/>
  </g>
  <path class="cls-2" d="M124.87,85.02c-4.37-5.34-10.13-8.79-16.89-10.93,15.95-6.75,22.59-27.85,12.76-42.15-6.76-10.13-18.76-15.16-28.64-15.16H42.23v50c7.61,.92,15.16,2.29,22.62,4.08V35.64h15.82c2.6-.04,5.2,.26,7.73,.89,4.64,1.19,8.73,3.27,11.11,7.65,4.03,7.42,1.78,16.69-5.21,21.44-6.55,4.58-14.41,5.75-22.18,6.49,20.6,3.89,49.52,17.88,59.47,31.99-.25-7.41-2.31-13.68-6.72-19.08Z"/>
  <path class="cls-1" d="M1.33,84.22c30.13-5.28,61.68-7.09,91.35,1.64,16.59,4.84,37.6,17.71,33.11,37.85-.24,1.04-.4,2.38-1.73,2.57s-1.88-.92-2.5-1.86C97.28,91.36,39.65,84.68,1.36,84.57l-.03-.35Z"/>
  <path class="cls-4" d="M24.26,103.1c22.43-2.01,46.14-3.45,67.56,4.75,6.38,2.56,12.45,5.63,16.62,11.37,3.38,4.68,5.74,9.77,5.55,15.73,.05,1.33-.35,2.64-1.13,3.72-.96,1.19-2.04,1.26-3.1,.17-22.51-21.96-55.2-30.94-85.54-35.44l.02-.31Z"/>
</svg>